<?xml version="1.0" encoding="UTF-8"?>
<svg id="Layer_1" data-name="Layer 1" xmlns="http://www.w3.org/2000/svg" viewBox="0 0 100 100">
  <defs>
    <style>
      .cls-1 {
        fill: #f6fdf9;
      }

      .cls-2 {
        fill: #e92558;
      }
    </style>
  </defs>
  <circle class="cls-2" cx="50" cy="50" r="50"/>
  <g>
    <path class="cls-1" d="m25.29,57.81c.28-.95.51-1.91,1.06-2.76,1.3-1.97,3.09-3.13,5.46-3.35,1.33-.12,2.67-.03,4-.06.31,0,.44.04.32.41-.4,1.2-.5,2.45-.49,3.7,0,4.36,0,8.72,0,13.08,0,.61.03,1.22.18,1.81.06.22.03.31-.23.31-2.12-.01-4.25.02-6.37-.03-1.68-.04-3.31-1.44-3.73-3.07-.05-.2-.07-.41-.19-.58v-9.46Z"/>
    <path class="cls-1" d="m50,70.94c-3.28,0-6.56-.03-9.84.02-.95.01-1.67-.65-1.66-1.67.04-4.75.03-9.49.01-14.24-.01-3.27,2.31-6.13,5.39-6.9.59-.15,1.19-.21,1.81-.21,2.93,0,5.86,0,8.78,0,3.29,0,6.08,2.4,6.8,5.39.14.6.2,1.2.2,1.81,0,4.75,0,9.49,0,14.24,0,1-.54,1.54-1.55,1.55-3.31,0-6.63,0-9.94,0Z"/>
    <path class="cls-1" d="m50.01,29.04c4.56-.03,8.57,3.65,8.56,8.53,0,4.89-3.86,8.62-8.59,8.61-4.84,0-8.57-3.9-8.56-8.64,0-4.85,4.05-8.55,8.58-8.5Z"/>
    <path class="cls-1" d="m64.12,70.91c.34-1.11.24-2.22.24-3.32,0-4.07,0-8.14,0-12.21,0-1.13-.13-2.24-.49-3.31-.12-.36-.04-.44.32-.43,1.62.06,3.25-.13,4.86.18,2.84.54,5.17,3.04,5.57,5.92.06.45.09.89.09,1.34,0,2.48,0,4.95,0,7.43,0,2.55-1.8,4.39-4.34,4.42-2.01.03-4.02,0-6.03,0-.05,0-.09-.01-.21-.03Z"/>
    <path class="cls-1" d="m41.34,43.46c.02,3.51-2.9,6.42-6.4,6.4-3.66-.02-6.41-2.91-6.41-6.44,0-3.58,2.93-6.42,6.46-6.37,3.57.04,6.38,2.89,6.35,6.42Z"/>
    <path class="cls-1" d="m65.08,37.04c3.54.02,6.45,2.92,6.4,6.4-.05,3.59-2.91,6.45-6.44,6.44-3.51-.01-6.43-2.98-6.39-6.47.05-3.56,2.89-6.38,6.43-6.36Z"/>
  </g>
</svg>