<?xml version="1.0" encoding="UTF-8"?>
<svg id="Layer_1" data-name="Layer 1" xmlns="http://www.w3.org/2000/svg" viewBox="0 0 100 100">
  <defs>
    <style>
      .cls-1 {
        fill: #f6fdf9;
      }

      .cls-2 {
        fill: #0760fd;
      }
    </style>
  </defs>
  <circle class="cls-2" cx="50" cy="50" r="50"/>
  <g>
    <path class="cls-1" d="m73.28,49.26v15.54s-.07.07-.07.11c-.33,2.34-2.48,4.49-5.5,4.48-11.48-.04-22.96-.02-34.44-.02-.51,0-1.03,0-1.54-.02-2.7-.14-4.95-2.41-4.97-5.12-.04-4.88-.02-9.75-.03-14.63,0-.3.07-.35.36-.26,2.77.93,5.54,1.85,8.31,2.77,4.41,1.47,8.82,2.95,13.23,4.42.93.31,1.86.31,2.8,0,4.22-1.41,8.45-2.82,12.68-4.23,3.06-1.02,6.12-2.03,9.18-3.04Z"/>
    <path class="cls-1" d="m73.28,46.17c-2.14.72-4.28,1.45-6.43,2.17-5.34,1.78-10.67,3.55-16.01,5.33-.57.19-1.09.19-1.67,0-5.32-1.79-10.65-3.55-15.97-5.33-2.04-.68-4.08-1.37-6.13-2.04-.27-.09-.35-.22-.34-.48.01-1.44-.04-2.88.02-4.32.11-2.86,2.45-5.01,4.97-5.06,3.18-.06,6.36-.02,9.54-.03.17,0,.33-.01.5,0,.4.04.52-.13.52-.53,0-.78-.09-1.57.1-2.35.4-1.67,1.88-2.91,3.59-2.92,2.74-.03,5.48-.03,8.22,0,1.82.02,3.5,1.74,3.55,3.54.01.56.03,1.12.01,1.68-.02.42.1.58.56.57,3.3-.01,6.6-.02,9.9.01,2.4.02,4.53,1.9,4.97,4.31.02.09,0,.19.09.24v5.18Zm-23.27-9.74c1.17,0,2.33,0,3.5,0,.28,0,.42-.08.4-.39-.02-.36-.02-.73,0-1.09.02-.37-.13-.51-.5-.5-1,.02-2,0-3,0-1.26,0-2.51,0-3.77,0-.39,0-.56.14-.54.53.02.32,0,.64,0,.95,0,.36.15.5.53.49,1.12-.02,2.24,0,3.36,0Z"/>
  </g>
</svg>