<?xml version="1.0" encoding="UTF-8"?>
<svg id="Layer_1" data-name="Layer 1" xmlns="http://www.w3.org/2000/svg" viewBox="0 0 100 100">
  <path d="m51.38,3.14c1.37.46,2.79.81,3.96,1.75,2.52,2.03,3.72,4.62,3.38,7.85-.07.67.17.86.75,1.07,9.91,3.52,16.43,10.32,19.5,20.39.87,2.85,1.13,5.79,1.13,8.75.01,5.23.04,10.45,0,15.68-.01,1.55.5,2.76,1.59,3.83,1.73,1.69,3.41,3.42,5.08,5.16,5.68,5.92,2.86,15.62-5.11,17.59-.86.21-1.74.29-2.63.29-5.01-.01-10.02.01-15.04-.03-.71,0-.92.24-1.04.87-1.26,6.63-7.16,11.15-13.9,10.69-5.65-.39-10.78-4.93-11.78-10.49-.14-.79-.38-1.08-1.26-1.07-4.89.05-9.78.04-14.67.03-5.61,0-9.86-3.45-10.79-8.97-.57-3.38.44-6.41,2.84-8.9,1.69-1.76,3.39-3.52,5.15-5.22,1.11-1.08,1.57-2.33,1.56-3.85-.02-5.68-.07-11.37.03-17.05.22-12.82,8.89-23.88,20.67-27.7.46-.15.7-.31.68-.87-.21-5.17,1.92-8.11,6.93-9.63.08-.02.14-.1.22-.15.92,0,1.83,0,2.75,0Zm-1.38,75.94c9.63,0,19.25,0,28.88,0,.37,0,.74.01,1.09-.06,3.19-.67,4.46-4.42,2.26-6.84-1.6-1.76-3.28-3.46-5-5.11-2.5-2.41-3.62-5.32-3.58-8.78.06-5.13,0-10.27.02-15.4.01-3.42-.55-6.73-1.91-9.88-4.09-9.45-13.88-15.17-23.93-14.12-5.16.54-9.67,2.47-13.48,5.94-4.9,4.46-7.59,10.03-7.74,16.68-.13,5.71-.07,11.43-.06,17.14,0,3.22-1.08,5.95-3.38,8.22-1.67,1.65-3.29,3.37-4.95,5.03-1.36,1.36-1.73,2.93-.99,4.68.75,1.76,2.16,2.52,4.08,2.52,9.57-.02,19.13,0,28.7,0Zm.15,6.41h0c-1.96,0-3.91.02-5.87,0-.53,0-.7.06-.49.66.84,2.52,3.39,4.43,6.1,4.49,2.82.06,5.52-1.75,6.45-4.27.24-.65.21-.92-.6-.89-1.86.05-3.73.02-5.59.02Zm-.16-73.17s0,.01,0,.02c.58,0,1.15-.02,1.73,0,.49.03.63-.18.62-.64-.03-1.08-.95-2.03-2.11-2.14-1.04-.1-2.12.73-2.35,1.76-.15.7-.04,1.13.83,1,.42-.06.85-.01,1.27-.01Z"/>
</svg>